<?xml version="1.0" standalone="no"?>
<!DOCTYPE svg PUBLIC "-//W3C//DTD SVG 20010904//EN"
 "http://www.w3.org/TR/2001/REC-SVG-20010904/DTD/svg10.dtd">
<svg version="1.0" xmlns="http://www.w3.org/2000/svg"
 width="500.000000pt" height="500.000000pt" viewBox="0 0 500.000000 500.000000"
 preserveAspectRatio="xMidYMid meet">
<metadata>
Created by potrace 1.11, written by Peter Selinger 2001-2013
</metadata>
<g transform="translate(0.000000,500.000000) scale(0.100000,-0.100000)"
fill="#000000" stroke="none">
<path d="M2350 4823 c-157 -91 -652 -377 -1100 -635 -448 -259 -821 -475 -827
-481 -10 -7 -13 -279 -13 -1297 l0 -1287 971 -561 970 -561 1082 625 c595 344
1099 637 1120 650 l37 24 0 1284 c0 1024 -3 1286 -13 1294 -23 20 -879 512
-890 512 -5 0 -77 -38 -159 -85 -82 -47 -154 -83 -160 -79 -7 4 -8 3 -4 -4 8
-14 -30 -36 -46 -26 -6 4 -8 3 -5 -3 3 -5 -75 -56 -173 -112 -99 -57 -186
-108 -195 -115 -13 -9 63 -57 440 -275 l455 -263 0 -255 0 -255 -35 21 -35 20
-26 -40 c-13 -22 -30 -51 -36 -65 l-11 -24 -34 20 c-19 11 -37 20 -41 20 -4 0
-22 -27 -40 -60 -19 -33 -36 -60 -40 -60 -4 0 -22 9 -39 20 l-33 20 -32 -58
-33 -57 -3 250 -3 250 -457 263 c-457 263 -457 263 -485 247 -15 -9 -32 -13
-39 -9 -6 4 -8 3 -5 -3 8 -12 -120 -86 -135 -77 -6 4 -8 3 -5 -3 8 -13 -360
-226 -375 -217 -6 4 -8 3 -5 -3 8 -13 -50 -46 -65 -37 -7 4 -8 3 -4 -4 8 -14
-50 -46 -66 -36 -7 4 -8 3 -4 -4 8 -14 -30 -36 -46 -26 -7 5 -8 3 -3 -6 6 -10
4 -12 -8 -7 -10 4 -16 2 -14 -6 1 -7 -6 -11 -15 -11 -10 1 -15 -3 -11 -9 4 -6
0 -8 -11 -4 -11 5 -15 3 -10 -5 5 -8 2 -9 -9 -5 -10 4 -16 2 -14 -6 1 -7 -6
-11 -15 -11 -10 1 -15 -3 -11 -9 4 -6 0 -8 -11 -4 -10 4 -15 3 -11 -3 8 -12
-52 -43 -67 -34 -7 4 -8 3 -4 -4 3 -6 -2 -16 -14 -22 -17 -9 -50 7 -222 106
-239 138 -235 135 -214 146 9 5 21 6 28 2 7 -4 8 -3 4 4 -8 14 30 36 46 26 7
-5 8 -3 3 6 -6 10 -4 12 9 7 10 -4 15 -3 11 3 -7 12 32 33 47 24 7 -4 8 -3 4
4 -8 14 30 36 46 26 7 -5 8 -3 3 6 -6 10 -4 12 9 7 10 -4 15 -3 11 3 -8 12 52
43 67 34 7 -4 8 -3 4 4 -8 14 30 35 47 26 6 -4 9 -4 5 1 -11 11 29 38 44 29 7
-5 8 -3 3 6 -6 10 -4 12 9 7 10 -4 15 -3 11 3 -7 12 32 33 47 24 6 -4 8 -3 5
3 -8 13 50 46 65 37 6 -4 8 -3 5 3 -8 13 50 46 65 37 6 -4 8 -3 5 3 -8 13 360
226 375 217 7 -4 8 -3 4 4 -4 7 -2 12 3 12 35 0 -18 35 -274 182 -156 90 -284
165 -284 168 0 9 420 245 437 245 9 0 144 -73 299 -163 243 -140 285 -161 303
-152 11 6 26 8 32 4 6 -4 8 -3 5 3 -8 13 360 226 375 217 7 -4 8 -3 4 4 -8 14
30 36 46 26 7 -5 8 -3 3 6 -6 10 -4 12 9 7 9 -4 15 -3 12 2 -8 12 102 73 116
65 6 -4 8 -3 5 3 -3 5 26 28 64 50 39 23 67 43 62 46 -275 161 -586 337 -596
336 -6 0 -140 -75 -297 -166z m-1106 -1607 l206 -120 0 -325 -1 -326 -23 53
c-12 29 -28 58 -36 65 -10 9 -11 9 -6 0 4 -8 -8 -20 -34 -33 l-40 -21 -9 23
c-33 87 -45 108 -58 108 -8 0 -11 5 -7 12 4 7 3 8 -5 4 -6 -4 -9 -11 -6 -16 3
-4 -10 -17 -29 -28 l-34 -20 -22 48 c-13 27 -19 53 -15 61 5 8 4 10 -3 5 -7
-4 -12 -3 -12 2 0 5 -9 12 -20 15 -13 3 -18 1 -13 -6 4 -7 0 -8 -11 -4 -11 5
-15 3 -10 -5 5 -8 2 -9 -10 -5 -9 4 -14 3 -11 -2 3 -5 1 -12 -5 -16 -7 -4 -10
103 -10 325 0 184 4 330 9 328 5 -1 101 -57 215 -122z"/>
<path d="M1428 2810 c-2 -155 0 -289 4 -298 4 -9 7 117 7 281 1 163 -1 297 -4
297 -2 0 -6 -126 -7 -280z"/>
<path d="M1150 2643 c0 -6 8 -17 18 -24 16 -13 16 -13 2 6 -8 11 -16 22 -17
24 -2 2 -3 0 -3 -6z"/>
<path d="M3380 4566 c0 -3 9 -10 20 -16 11 -6 20 -8 20 -6 0 3 -9 10 -20 16
-11 6 -20 8 -20 6z"/>
</g>
</svg>
